<svg width="135" height="135" xmlns="http://www.w3.org/2000/svg" xmlns:xlink="http://www.w3.org/1999/xlink" overflow="hidden"><defs><clipPath id="clip0"><rect x="312" y="490" width="135" height="135"/></clipPath></defs><g clip-path="url(#clip0)" transform="translate(-312 -490)"><path d="M422.531 513.913 336.469 513.913C333.84 513.941 331.715 516.065 331.688 518.695L331.688 576.79C331.666 579.408 333.771 581.549 336.39 581.571 336.416 581.571 336.442 581.571 336.469 581.571L389.062 581.571 408.188 601.118 408.188 581.711 422.531 581.711C425.16 581.684 427.285 579.559 427.312 576.93L427.312 518.837C427.346 516.159 425.209 513.958 422.531 513.913ZM393.608 559.227C391.272 564.976 385.689 568.74 379.483 568.75 379.483 568.75 379.535 565.244 375.664 560.535 371.792 555.825 373.571 549.023 373.571 549.023 369.038 553.351 367.774 560.091 370.432 565.767 366.98 563.884 361.905 555.983 365.305 547.715 366.857 544.857 368.996 542.361 371.583 540.39 374.931 537.616 380.791 530.971 376.969 523.75 385.391 527.413 389.106 538.035 384.031 544.785 382.215 547.012 382.55 550.29 384.777 552.105 387.005 553.921 390.282 553.587 392.097 551.359 393.106 550.121 393.491 548.489 393.141 546.931 395.596 550.175 395.438 555.721 393.608 559.227Z" fill="#E0144C"/></g></svg>