<svg width="135" height="135" xmlns="http://www.w3.org/2000/svg" xmlns:xlink="http://www.w3.org/1999/xlink" xml:space="preserve" overflow="hidden"><g transform="translate(-55 -356)"><path d="M28.125 69.3281 28.125 85.7812C28.125 93.5156 45.7031 101.25 67.5 101.25 89.2969 101.25 106.875 93.5156 106.875 85.7812L106.875 69.3281 67.5 83.25 28.125 69.3281Z" fill="#919ACA" transform="matrix(-1 0 0 1 190 356)"/><path d="M67.5 77.2031 128.812 55.6875 67.5 33.75 6.1875 55.6875 14.0625 58.5 14.0625 84.375C14.0625 85.9219 15.3281 87.1875 16.875 87.1875 18.4219 87.1875 19.6875 85.9219 19.6875 84.375L19.6875 60.4688 67.5 77.2031Z" fill="#919ACA" transform="matrix(-1 0 0 1 190 356)"/></g></svg>