<svg width="135" height="135" xmlns="http://www.w3.org/2000/svg" xmlns:xlink="http://www.w3.org/1999/xlink" overflow="hidden"><defs><clipPath id="clip0"><rect x="502" y="496" width="135" height="135"/></clipPath></defs><g clip-path="url(#clip0)" transform="translate(-502 -496)"><path d="M612.531 519.913 526.469 519.913C523.84 519.941 521.715 522.065 521.688 524.695L521.688 582.79C521.666 585.408 523.771 587.549 526.39 587.571 526.416 587.571 526.442 587.571 526.469 587.571L579.062 587.571 598.188 607.118 598.188 587.711 612.531 587.711C615.16 587.684 617.285 585.559 617.312 582.93L617.312 524.837C617.346 522.159 615.209 519.958 612.531 519.913ZM583.607 565.227C581.272 570.976 575.689 574.74 569.483 574.75 569.483 574.75 569.535 571.244 565.664 566.535 561.792 561.825 563.571 555.023 563.571 555.023 559.037 559.351 557.774 566.091 560.432 571.767 556.98 569.884 551.905 561.983 555.305 553.715 556.857 550.857 558.996 548.361 561.583 546.39 564.931 543.616 570.791 536.971 566.969 529.75 575.391 533.413 579.106 544.035 574.031 550.785 572.215 553.012 572.55 556.29 574.777 558.105 577.005 559.921 580.282 559.587 582.097 557.359 583.106 556.121 583.491 554.489 583.141 552.931 585.596 556.175 585.438 561.721 583.607 565.227Z" fill="#FFFFFF"/></g></svg>