<svg width="135" height="135" xmlns="http://www.w3.org/2000/svg" xmlns:xlink="http://www.w3.org/1999/xlink" xml:space="preserve" overflow="hidden"><g transform="translate(-312 -490)"><path d="M110.531 23.9133 24.4688 23.9133C21.8396 23.9407 19.7149 26.0654 19.6875 28.6945L19.6875 86.7895C19.6657 89.4082 21.7709 91.549 24.3897 91.5708 24.416 91.5709 24.4425 91.5709 24.4688 91.5708L77.0625 91.5708 96.1875 111.118 96.1875 91.7114 110.531 91.7114C113.16 91.684 115.285 89.5593 115.312 86.9302L115.312 28.8366C115.346 26.1589 113.209 23.958 110.531 23.9133ZM81.6075 69.2269C79.2716 74.9762 73.6888 78.7402 67.4831 78.75 67.4831 78.75 67.5352 75.2442 63.6637 70.5347 59.7923 65.8252 61.5713 59.0231 61.5713 59.0231 57.0375 63.3513 55.7741 70.091 58.4325 75.7673 54.9802 73.8844 49.905 65.9827 53.3053 57.7153 54.8565 54.8574 56.9962 52.3607 59.5828 50.3902 62.9311 47.6156 68.7909 40.9711 64.9688 33.75 73.3908 37.4133 77.1061 48.0347 72.0309 54.7847 70.2155 57.0122 70.5496 60.2896 72.7771 62.1051 75.0046 63.9205 78.282 63.5865 80.0975 61.359 81.1063 60.1211 81.4909 58.4886 81.1406 56.9306 83.5959 60.1748 83.4384 65.7211 81.6075 69.2269Z" fill="#E0144C" transform="matrix(-1 0 0 1 447 490)"/></g></svg>