<svg width="135" height="135" xmlns="http://www.w3.org/2000/svg" xmlns:xlink="http://www.w3.org/1999/xlink" overflow="hidden"><defs><clipPath id="clip0"><rect x="502" y="220" width="135" height="135"/></clipPath></defs><g clip-path="url(#clip0)" transform="translate(-502 -220)"><path d="M569.5 281.875C562.469 281.875 556.844 276.25 556.844 269.219 556.844 262.188 562.469 256.562 569.5 256.562 576.531 256.562 582.156 262.188 582.156 269.219 582.156 276.25 576.531 281.875 569.5 281.875ZM569.5 239.688C559.797 239.688 550.656 244.469 545.172 252.625 539.688 260.641 538.562 270.906 542.078 280.047L555.438 309.578 566.969 333.766C567.391 334.75 568.375 335.312 569.5 335.312 570.625 335.312 571.609 334.75 572.031 333.766L583.562 309.578 596.922 280.047C600.438 270.906 599.312 260.641 593.828 252.625 588.344 244.469 579.203 239.688 569.5 239.688Z" fill="#FFFFFF"/></g></svg>