<svg width="135" height="135" xmlns="http://www.w3.org/2000/svg" xmlns:xlink="http://www.w3.org/1999/xlink" overflow="hidden"><defs><clipPath id="clip0"><rect x="312" y="59" width="135" height="135"/></clipPath></defs><g clip-path="url(#clip0)" transform="translate(-312 -59)"><path d="M432.234 165.312 414.656 147.734C412.266 145.344 409.031 144.5 405.938 145.062L399.75 138.875C405.234 131.844 408.469 122.844 408.469 113.281 408.469 90.0781 389.484 71.0938 366.281 71.0938 343.078 71.0938 324.094 90.0781 324.094 113.281 324.094 136.484 343.078 155.469 366.281 155.469 375.844 155.469 384.703 152.234 391.875 146.75L398.062 152.938C397.5 156.031 398.344 159.266 400.734 161.656L418.312 179.234C420.281 181.203 422.812 182.188 425.344 182.188 427.875 182.188 430.406 181.203 432.375 179.234 436.031 175.297 436.031 169.109 432.234 165.312ZM366.141 146.891C347.578 146.891 332.391 131.703 332.391 113.141 332.391 94.5781 347.578 79.3906 366.141 79.3906 384.703 79.3906 399.891 94.5781 399.891 113.141 399.891 131.703 384.703 146.891 366.141 146.891Z" fill="#E0144C"/></g></svg>