<svg width="135" height="135" xmlns="http://www.w3.org/2000/svg" xmlns:xlink="http://www.w3.org/1999/xlink" xml:space="preserve" overflow="hidden"><g transform="translate(-55 -59)"><path d="M120.234 106.312 102.656 88.7344C100.266 86.3438 97.0312 85.5 93.9375 86.0625L87.75 79.875C93.2344 72.8438 96.4688 63.8438 96.4688 54.2812 96.4688 31.0781 77.4844 12.0938 54.2812 12.0938 31.0781 12.0938 12.0938 31.0781 12.0938 54.2812 12.0938 77.4844 31.0781 96.4688 54.2812 96.4688 63.8438 96.4688 72.7031 93.2344 79.875 87.75L86.0625 93.9375C85.5 97.0312 86.3438 100.266 88.7344 102.656L106.312 120.234C108.281 122.203 110.813 123.188 113.344 123.188 115.875 123.188 118.406 122.203 120.375 120.234 124.031 116.297 124.031 110.109 120.234 106.312ZM54.1406 87.8906C35.5781 87.8906 20.3906 72.7031 20.3906 54.1406 20.3906 35.5781 35.5781 20.3906 54.1406 20.3906 72.7031 20.3906 87.8906 35.5781 87.8906 54.1406 87.8906 72.7031 72.7031 87.8906 54.1406 87.8906Z" fill="#919ACA" transform="matrix(-1 0 0 1 190 59)"/></g></svg>