<svg width="135" height="135" xmlns="http://www.w3.org/2000/svg" xmlns:xlink="http://www.w3.org/1999/xlink" overflow="hidden"><defs><clipPath id="clip0"><rect x="502" y="65" width="135" height="135"/></clipPath></defs><g clip-path="url(#clip0)" transform="translate(-502 -65)"><path d="M622.234 171.312 604.656 153.734C602.266 151.344 599.031 150.5 595.938 151.062L589.75 144.875C595.234 137.844 598.469 128.844 598.469 119.281 598.469 96.0781 579.484 77.0938 556.281 77.0938 533.078 77.0938 514.094 96.0781 514.094 119.281 514.094 142.484 533.078 161.469 556.281 161.469 565.844 161.469 574.703 158.234 581.875 152.75L588.062 158.938C587.5 162.031 588.344 165.266 590.734 167.656L608.312 185.234C610.281 187.203 612.812 188.188 615.344 188.188 617.875 188.188 620.406 187.203 622.375 185.234 626.031 181.297 626.031 175.109 622.234 171.312ZM556.141 152.891C537.578 152.891 522.391 137.703 522.391 119.141 522.391 100.578 537.578 85.3906 556.141 85.3906 574.703 85.3906 589.891 100.578 589.891 119.141 589.891 137.703 574.703 152.891 556.141 152.891Z" fill="#FFFFFF"/></g></svg>