<svg width="135" height="135" xmlns="http://www.w3.org/2000/svg" xmlns:xlink="http://www.w3.org/1999/xlink" overflow="hidden"><defs><clipPath id="clip0"><rect x="55" y="490" width="135" height="135"/></clipPath></defs><g clip-path="url(#clip0)" transform="translate(-55 -490)"><path d="M165.531 513.913 79.4688 513.913C76.8396 513.941 74.7149 516.065 74.6875 518.695L74.6875 576.79C74.6657 579.408 76.7709 581.549 79.3897 581.571 79.416 581.571 79.4425 581.571 79.4688 581.571L132.062 581.571 151.188 601.118 151.188 581.711 165.531 581.711C168.16 581.684 170.285 579.559 170.312 576.93L170.312 518.837C170.346 516.159 168.209 513.958 165.531 513.913ZM136.608 559.227C134.272 564.976 128.689 568.74 122.483 568.75 122.483 568.75 122.535 565.244 118.664 560.535 114.792 555.825 116.571 549.023 116.571 549.023 112.038 553.351 110.774 560.091 113.432 565.767 109.98 563.884 104.905 555.983 108.305 547.715 109.857 544.857 111.996 542.361 114.583 540.39 117.931 537.616 123.791 530.971 119.969 523.75 128.391 527.413 132.106 538.035 127.031 544.785 125.215 547.012 125.55 550.29 127.777 552.105 130.005 553.921 133.282 553.587 135.097 551.359 136.106 550.121 136.491 548.489 136.141 546.931 138.596 550.175 138.438 555.721 136.608 559.227Z" fill="#919ACA"/></g></svg>