<svg width="135" height="135" xmlns="http://www.w3.org/2000/svg" xmlns:xlink="http://www.w3.org/1999/xlink" xml:space="preserve" overflow="hidden"><g transform="translate(-55 -214)"><path d="M67.5 61.875C60.4688 61.875 54.8438 56.25 54.8438 49.2188 54.8438 42.1875 60.4688 36.5625 67.5 36.5625 74.5312 36.5625 80.1562 42.1875 80.1562 49.2188 80.1562 56.25 74.5312 61.875 67.5 61.875ZM67.5 19.6875C57.7969 19.6875 48.6562 24.4688 43.1719 32.625 37.6875 40.6406 36.5625 50.9062 40.0781 60.0469L53.4375 89.5781 64.9688 113.766C65.3906 114.75 66.375 115.312 67.5 115.312 68.625 115.312 69.6094 114.75 70.0312 113.766L81.5625 89.5781 94.9219 60.0469C98.4375 50.9062 97.3125 40.6406 91.8281 32.625 86.3438 24.4688 77.2031 19.6875 67.5 19.6875Z" fill="#919ACA" transform="matrix(-1 0 0 1 190 214)"/></g></svg>