<svg width="135" height="135" xmlns="http://www.w3.org/2000/svg" xmlns:xlink="http://www.w3.org/1999/xlink" overflow="hidden"><defs><clipPath id="clip0"><rect x="55" y="59" width="135" height="135"/></clipPath></defs><g clip-path="url(#clip0)" transform="translate(-55 -59)"><path d="M175.234 165.312 157.656 147.734C155.266 145.344 152.031 144.5 148.938 145.062L142.75 138.875C148.234 131.844 151.469 122.844 151.469 113.281 151.469 90.0781 132.484 71.0938 109.281 71.0938 86.0781 71.0938 67.0938 90.0781 67.0938 113.281 67.0938 136.484 86.0781 155.469 109.281 155.469 118.844 155.469 127.703 152.234 134.875 146.75L141.062 152.938C140.5 156.031 141.344 159.266 143.734 161.656L161.312 179.234C163.281 181.203 165.812 182.188 168.344 182.188 170.875 182.188 173.406 181.203 175.375 179.234 179.031 175.297 179.031 169.109 175.234 165.312ZM109.141 146.891C90.5781 146.891 75.3906 131.703 75.3906 113.141 75.3906 94.5781 90.5781 79.3906 109.141 79.3906 127.703 79.3906 142.891 94.5781 142.891 113.141 142.891 131.703 127.703 146.891 109.141 146.891Z" fill="#919ACA"/></g></svg>